<svg id="圖層_1" data-name="圖層 1" xmlns="http://www.w3.org/2000/svg" viewBox="0 0 259 244"><defs><style>.cls-1{fill:#0c9;}.cls-2,.cls-3{fill:none;stroke:#fff;stroke-miterlimit:10;}.cls-2{stroke-width:6.77px;}.cls-3{stroke-linecap:round;stroke-width:10px;}</style></defs><title>工作區域 1</title><path class="cls-1" d="M159,3.28H98.19a65.87,65.87,0,0,0-57,32.93L10.74,88.89a65.87,65.87,0,0,0,0,65.87l30.41,52.67a65.87,65.87,0,0,0,57,32.93H159a65.87,65.87,0,0,0,57-32.93l30.41-52.67a65.87,65.87,0,0,0,0-65.87L216.06,36.21A65.87,65.87,0,0,0,159,3.28Z"/><path class="cls-2" d="M152.88,27.18H104.32A52.59,52.59,0,0,0,58.78,53.48L34.51,95.53a52.59,52.59,0,0,0,0,52.59l24.28,42.05a52.59,52.59,0,0,0,45.54,26.29h48.56a52.59,52.59,0,0,0,45.54-26.29l24.28-42.05a52.59,52.59,0,0,0,0-52.59L198.42,53.48A52.59,52.59,0,0,0,152.88,27.18Z"/><path class="cls-3" d="M166.22,137.59l-29-35.48a10.49,10.49,0,0,0-16.1-.18L91.13,137A5.09,5.09,0,0,0,95,145.39h67.52A4.78,4.78,0,0,0,166.22,137.59Z"/></svg>